# xmcd
#
# Track frame offsets:
#	150
#	18102
#	32027
#	46172
#	63902
#	84750
#	102330
#	118380
#	133030
#	154830
#	172842
#
# Disc length: 2507 seconds
#
# Revision: 2
# Processed by: cddbd v1.5.1PL0 Copyright (c) Steve Scherf et al.
# Submitted via: Audio-CD-Archiv 4.00.519
#
DISCID=8009c90b
DTITLE=Little Grand Canyon - Somewhere In The Night
DYEAR=1996
DGENRE=country
TTITLE0=unbekannt - Somewhere In The Night
TTITLE1=unbekannt - One More Night
TTITLE2=unbekannt - This Time I Will Stay
TTITLE3=unbekannt - Out On The Road
TTITLE4=unbekannt - You Better Walk Alone
TTITLE5=unbekannt - 18 Wheels
TTITLE6=unbekannt - Wait'n For A Good Time
TTITLE7=unbekannt - Do You Remember
TTITLE8=unbekannt - Back Home Again
TTITLE9=unbekannt - Ready For Country
TTITLE10=unbekannt - Old Singer
EXTD=
EXTT0=
EXTT1=
EXTT2=
EXTT3=
EXTT4=
EXTT5=
EXTT6=
EXTT7=
EXTT8=
EXTT9=
EXTT10=
PLAYORDER=
